<?xml version="1.0" encoding="UTF-8" standalone="no"?>
<!DOCTYPE svg PUBLIC "-//W3C//DTD SVG 20010904//EN" "http://www.w3.org/TR/2001/REC-SVG-20010904/DTD/svg10.dtd">
<svg version="1.0" xmlns="http://www.w3.org/2000/svg" width="2000.000000pt" height="2106.000000pt" viewBox="0 0 2000.000000 2106.000000" preserveAspectRatio="xMidYMid meet">
<metadata>
Created by potrace 1.15, written by Peter Selinger 2001-2017
</metadata>
<g transform="translate(0.000000,2106.000000) scale(0.100000,-0.100000)" fill="#000000" stroke="none">
<path d="M6450 15935 c-1741 -1758 -3166 -3199 -3167 -3203 -2 -4 1026 -1075 2283 -2381 l2286 -2374 -2584 -2584 -2583 -2583 1945 0 1945 1 1610 1554 1610 1554 1550 -1555 1550 -1555 1883 1 c1105 0 1882 4 1880 9 -2 7 -4387 4606 -4831 5067 l-88 92 2253 2282 c1239 1255 2254 2286 2256 2290 3 7 -6611 6571 -6627 6578 -3 1 -1430 -1436 -3171 -3193z m3567 -1070 c447 -437 1201 -1176 1882 -1845 l473 -465 -49 -44 c-105 -96 -2689 -2294 -2701 -2299 -5 -1 -2174 2009 -2465 2285 l-57 55 18 23 c29 37 1871 2009 2299 2461 73 77 147 157 164 177 18 21 36 36 40 35 4 -2 182 -174 396 -383z"/>
</g>
</svg>